<svg width="670" height="115" viewBox="0 0 670 115" fill="none" xmlns="http://www.w3.org/2000/svg">
<g clip-path="url(#clip0_102_14)">
<path d="M145.021 25.299H158.449L189.143 65.5466V25.299H203.338V90.4625H191.061L159.216 49.0654V90.4625H145.021V25.299ZM235.562 64.7803L210.241 25.299H227.12L242.848 51.3644L258.577 25.299H275.072L250.135 64.3971V90.4625H235.94V64.7803H235.557H235.562ZM281.218 62.4813V25.299H295.412V62.0981C295.412 72.8317 300.781 78.1962 309.606 78.1962C318.432 78.1962 323.801 72.8317 323.801 62.4813V25.299H337.995V62.0981C337.995 82.0327 326.869 91.612 309.223 91.612C291.577 91.612 281.218 81.6447 281.218 62.4813ZM51.025 59.799C39.1316 52.8971 40.2822 42.5514 45.2725 35.2663V34.5C44.889 32.5841 42.9715 28.3644 42.2045 27.2149C41.9488 26.9595 41.821 26.9595 41.821 27.2149C41.821 29.1308 39.5199 34.1168 36.0684 39.8644C32.2334 46.3832 32.2334 59.799 51.0298 59.799C51.0298 60.1822 51.0298 59.799 51.0298 59.799M54.0978 59.4159C47.19 44.4673 61.0057 34.5 63.3067 32.5841C63.5624 32.3287 63.6902 32.0732 63.6902 31.8178C63.6902 27.2197 61.0057 19.5514 60.2387 18.4019H59.8552C58.7047 23 52.1803 29.9019 51.0298 31.4346C39.9034 44.0841 42.588 52.1356 54.0978 59.4159C54.0978 59.4159 54.0978 59.799 54.0978 59.4159ZM56.3988 58.6495C59.8504 42.5514 72.8943 42.1683 74.0448 39.0981C75.9623 34.5 72.5107 26.0654 71.7437 24.9159H71.3602C69.4427 28.7476 66.7582 32.5841 64.4524 34.1168C61.7679 36.799 50.258 45.2337 56.3941 58.6495C56.0106 59.0327 56.3941 59.0327 56.3941 58.6495M58.6951 60.1822C79.7973 60.9486 81.3313 41.7803 81.3313 34.5C81.3313 34.1168 80.9478 34.1168 80.9478 34.5C80.1808 36.0327 77.4963 41.4019 69.8214 44.4673C63.2971 47.5327 59.0786 54.0514 58.6951 60.1822C58.6951 60.1822 58.3116 60.1822 58.6951 60.1822ZM63.2971 62.4813H46.8017V67.4625H63.2971V62.4813ZM53.7047 101.579C53.7047 102.346 55.6223 102.729 56.0058 101.579L59.8408 69.7616H50.2484L53.6999 101.579H53.7047ZM115.089 114.995H0V0H115.099V115L115.089 114.995Z" fill="white"/>
</g>
<path d="M394.776 54.576C401.256 54.576 405.096 52.272 408.552 48.576L403.848 43.824C401.208 46.224 398.856 47.76 395.016 47.76C389.256 47.76 385.272 42.96 385.272 37.2V37.104C385.272 31.344 389.352 26.64 395.016 26.64C398.376 26.64 401.016 28.08 403.608 30.432L408.312 25.008C405.192 21.936 401.4 19.824 395.064 19.824C384.744 19.824 377.544 27.648 377.544 37.2V37.296C377.544 46.944 384.888 54.576 394.776 54.576ZM425.857 54.576C433.873 54.576 439.825 48.576 439.825 41.184V41.088C439.825 33.696 433.921 27.792 425.953 27.792C417.937 27.792 411.985 33.792 411.985 41.184V41.28C411.985 48.672 417.889 54.576 425.857 54.576ZM425.953 48.288C421.921 48.288 419.185 44.976 419.185 41.184V41.088C419.185 37.296 421.681 34.08 425.857 34.08C429.889 34.08 432.625 37.392 432.625 41.184V41.28C432.625 45.072 430.129 48.288 425.953 48.288ZM453.652 54.48C457.348 54.48 459.508 52.512 461.188 50.352V54H468.484V28.272H461.188V42.624C461.188 46.08 459.412 47.856 456.628 47.856C453.844 47.856 452.212 46.08 452.212 42.624V28.272H444.916V44.928C444.916 50.832 448.132 54.48 453.652 54.48ZM475.014 54H482.31V44.496C482.31 38.352 485.286 35.424 490.134 35.424H490.518V27.792C486.198 27.6 483.798 29.904 482.31 33.456V28.272H475.014V54ZM504.101 54.48C509.669 54.48 513.941 51.888 513.941 46.176V46.08C513.941 41.376 509.765 39.648 506.165 38.448C503.381 37.488 500.933 36.816 500.933 35.376V35.28C500.933 34.272 501.845 33.504 503.621 33.504C505.493 33.504 508.037 34.416 510.581 35.904L513.365 30.864C510.581 28.992 507.029 27.888 503.765 27.888C498.581 27.888 494.357 30.816 494.357 36.048V36.144C494.357 41.136 498.437 42.816 502.037 43.872C504.869 44.736 507.365 45.264 507.365 46.848V46.944C507.365 48.096 506.405 48.864 504.293 48.864C501.893 48.864 498.965 47.808 496.181 45.792L493.061 50.592C496.469 53.28 500.501 54.48 504.101 54.48ZM531.362 54.576C536.018 54.576 539.474 52.752 541.874 49.776L537.698 46.08C535.682 47.952 533.906 48.72 531.458 48.72C528.194 48.72 525.89 46.992 525.17 43.68H543.074C543.122 43.008 543.17 42.336 543.17 41.76C543.17 34.464 539.234 27.792 530.642 27.792C523.154 27.792 517.922 33.84 517.922 41.184V41.28C517.922 49.152 523.634 54.576 531.362 54.576ZM525.074 39.12C525.65 35.808 527.618 33.648 530.642 33.648C533.714 33.648 535.634 35.856 536.066 39.12H525.074ZM394.776 97.576C401.256 97.576 405.096 95.272 408.552 91.576L403.848 86.824C401.208 89.224 398.856 90.76 395.016 90.76C389.256 90.76 385.272 85.96 385.272 80.2V80.104C385.272 74.344 389.352 69.64 395.016 69.64C398.376 69.64 401.016 71.08 403.608 73.432L408.312 68.008C405.192 64.936 401.4 62.824 395.064 62.824C384.744 62.824 377.544 70.648 377.544 80.2V80.296C377.544 89.944 384.888 97.576 394.776 97.576ZM425.857 97.576C433.873 97.576 439.825 91.576 439.825 84.184V84.088C439.825 76.696 433.921 70.792 425.953 70.792C417.937 70.792 411.985 76.792 411.985 84.184V84.28C411.985 91.672 417.889 97.576 425.857 97.576ZM425.953 91.288C421.921 91.288 419.185 87.976 419.185 84.184V84.088C419.185 80.296 421.681 77.08 425.857 77.08C429.889 77.08 432.625 80.392 432.625 84.184V84.28C432.625 88.072 430.129 91.288 425.953 91.288ZM457.732 97.576C465.748 97.576 471.7 91.576 471.7 84.184V84.088C471.7 76.696 465.796 70.792 457.828 70.792C449.812 70.792 443.86 76.792 443.86 84.184V84.28C443.86 91.672 449.764 97.576 457.732 97.576ZM457.828 91.288C453.796 91.288 451.06 87.976 451.06 84.184V84.088C451.06 80.296 453.556 77.08 457.732 77.08C461.764 77.08 464.5 80.392 464.5 84.184V84.28C464.5 88.072 462.004 91.288 457.828 91.288ZM476.983 97H484.279V87.496C484.279 81.352 487.255 78.424 492.103 78.424H492.487V70.792C488.167 70.6 485.767 72.904 484.279 76.456V71.272H476.983V97ZM507.137 97.48C510.929 97.48 513.377 95.704 515.153 93.304V97H522.449V61.96H515.153V74.632C513.425 72.568 511.025 70.792 507.137 70.792C501.041 70.792 495.425 75.496 495.425 84.088V84.184C495.425 92.776 501.137 97.48 507.137 97.48ZM509.009 91.288C505.601 91.288 502.721 88.456 502.721 84.184V84.088C502.721 79.768 505.601 76.984 509.009 76.984C512.417 76.984 515.249 79.816 515.249 84.088V84.184C515.249 88.456 512.417 91.288 509.009 91.288ZM529.111 68.44H536.791V61.96H529.111V68.44ZM529.303 97H536.599V71.272H529.303V97ZM543.452 97H550.748V82.648C550.748 79.192 552.523 77.416 555.308 77.416C558.092 77.416 559.724 79.192 559.724 82.648V97H567.02V80.344C567.02 74.44 563.804 70.792 558.284 70.792C554.588 70.792 552.428 72.76 550.748 74.92V71.272H543.452V97ZM580.654 97.48C584.206 97.48 586.654 96.184 588.43 94.216V97H595.486V82.072C595.486 78.616 594.622 75.784 592.702 73.864C590.878 72.04 587.998 70.984 584.014 70.984C579.646 70.984 576.862 71.8 574.03 73.048L575.854 78.616C578.206 77.752 580.174 77.224 582.958 77.224C586.606 77.224 588.478 78.904 588.478 81.928V82.36C586.654 81.736 584.782 81.304 582.19 81.304C576.094 81.304 571.822 83.896 571.822 89.512V89.608C571.822 94.696 575.806 97.48 580.654 97.48ZM582.862 92.44C580.51 92.44 578.878 91.288 578.878 89.32V89.224C578.878 86.92 580.798 85.672 583.918 85.672C585.694 85.672 587.326 86.056 588.574 86.632V87.928C588.574 90.568 586.27 92.44 582.862 92.44ZM610.218 97.432C612.666 97.432 614.442 96.856 615.978 95.944V90.088C614.922 90.664 613.722 91 612.378 91C610.746 91 610.026 90.184 610.026 88.504V77.512H616.074V71.272H610.026V64.696H602.73V71.272H599.658V77.512H602.73V89.704C602.73 95.656 605.754 97.432 610.218 97.432ZM633.372 97.576C641.388 97.576 647.34 91.576 647.34 84.184V84.088C647.34 76.696 641.436 70.792 633.468 70.792C625.452 70.792 619.5 76.792 619.5 84.184V84.28C619.5 91.672 625.404 97.576 633.372 97.576ZM633.468 91.288C629.436 91.288 626.7 87.976 626.7 84.184V84.088C626.7 80.296 629.196 77.08 633.372 77.08C637.404 77.08 640.14 80.392 640.14 84.184V84.28C640.14 88.072 637.644 91.288 633.468 91.288ZM652.623 97H659.919V87.496C659.919 81.352 662.895 78.424 667.743 78.424H668.127V70.792C663.807 70.6 661.407 72.904 659.919 76.456V71.272H652.623V97Z" fill="white"/>
<line x1="356.35" y1="1.5299e-08" x2="356.35" y2="115" stroke="#D9D9D9" stroke-width="0.7"/>
<defs>
<clipPath id="clip0_102_14">
<rect width="338" height="115" fill="white"/>
</clipPath>
</defs>
</svg>